<?xml version="1.0" standalone="no"?>
<!DOCTYPE svg PUBLIC "-//W3C//DTD SVG 20010904//EN"
 "http://www.w3.org/TR/2001/REC-SVG-20010904/DTD/svg10.dtd">
<svg version="1.0" xmlns="http://www.w3.org/2000/svg"
 width="512.000000pt" height="512.000000pt" viewBox="0 0 512.000000 512.000000"
 preserveAspectRatio="xMidYMid meet">
<metadata>
Created by potrace 1.11, written by Peter Selinger 2001-2013
</metadata>
<g transform="translate(0.000000,512.000000) scale(0.100000,-0.100000)"
fill="#000000" stroke="none">
<path d="M1380 5104 c-73 -31 -91 -74 -105 -249 -3 -38 -8 -86 -10 -105 -2
-19 -7 -69 -10 -110 -3 -41 -8 -97 -11 -125 -2 -27 -7 -70 -9 -95 -5 -50 -16
-176 -20 -230 -3 -42 -15 -181 -20 -230 -2 -19 -6 -66 -10 -105 -3 -38 -8 -90
-10 -115 -3 -25 -8 -76 -11 -115 -3 -38 -7 -86 -9 -105 -2 -19 -6 -75 -10
-125 -4 -49 -9 -99 -12 -110 -9 -42 -11 -334 -2 -405 29 -225 106 -429 240
-631 79 -119 262 -303 380 -382 106 -70 284 -155 402 -191 l87 -27 0 -585 0
-584 -222 -1 c-123 0 -234 -2 -248 -5 -88 -15 -201 -86 -253 -161 -85 -120
-100 -277 -30 -304 33 -12 2129 -12 2152 1 47 25 51 116 9 224 -28 71 -120
170 -189 204 -72 35 -136 42 -365 42 l-214 0 0 585 c0 460 3 586 13 589 315
85 566 241 772 481 46 53 146 207 185 285 38 76 104 258 116 322 24 131 32
228 29 373 -3 88 -6 169 -9 180 -2 11 -7 58 -11 105 -3 47 -8 101 -10 120 -2
19 -6 71 -10 115 -4 44 -8 91 -10 105 -2 14 -6 59 -10 100 -6 82 -13 160 -20
230 -3 25 -7 79 -10 120 -3 41 -7 93 -10 115 -2 22 -7 69 -10 105 -2 36 -7 85
-9 110 -5 48 -13 132 -21 233 -24 269 -26 281 -67 320 -50 49 -11 47 -1230 47
-994 -1 -1148 -3 -1178 -16z"/>
</g>
</svg>
